<?xml version="1.0" encoding="utf-8"?>
<!-- Generator: Adobe Illustrator 19.0.0, SVG Export Plug-In . SVG Version: 6.00 Build 0)  -->
<svg version="1.1" id="Layer_1" xmlns="http://www.w3.org/2000/svg" xmlns:xlink="http://www.w3.org/1999/xlink" x="0px" y="0px"
	 viewBox="0 0 1920 500" style="enable-background:new 0 0 1920 500;" xml:space="preserve">
<style type="text/css">
	.st0{fill:#FBD95C;}
	.st1{opacity:0.35;}
	.st2{fill:#FFFFFF;}
</style>
<rect class="st0" width="1920" height="500"/>
<g id="Layer_2">
	<g id="Layer_3">
		<g id="Layer_4">
		</g>
		<g id="Layer_5">
		</g>
	</g>
</g>
<g class="st1">
	<g>
		<g>
			<g>
				<rect x="1593.7" y="-656.4" class="st2" width="321.5" height="7.6"/>
			</g>
			<g>
				<path class="st2" d="M1574.6-631.6c-11.6,0-21-9.4-21-21c0-11.6,9.4-21,21-21c11.5,0,20.9,9.4,20.9,21
					S1586.2-631.6,1574.6-631.6z M1574.6-666c-7.4,0-13.4,6-13.4,13.4c0,7.3,6,13.4,13.4,13.4c7.4,0,13.3-6.1,13.3-13.4
					C1588-660,1582-666,1574.6-666z"/>
			</g>
			<g>
				<path class="st2" d="M1071.8-648.8c-11.6,0-21-9.4-21-21c0-11.5,9.4-20.8,21-20.8c11.6,0,21,9.3,21,20.8
					C1092.8-658.2,1083.4-648.8,1071.8-648.8z M1071.8-683c-7.4,0-13.3,5.9-13.3,13.2s6,13.3,13.3,13.3s13.4-6,13.4-13.3
					S1079.2-683,1071.8-683z"/>
			</g>
			<g>
				<path class="st2" d="M1408.9-563.4c-11.6,0-21-9.4-21-21s9.4-21,21-21s20.9,9.4,20.9,21S1420.5-563.4,1408.9-563.4z
					 M1408.9-597.7c-7.4,0-13.3,6-13.3,13.4c0,7.5,5.9,13.3,13.3,13.3c7.3,0,13.3-6,13.3-13.3
					C1422.2-591.7,1416.2-597.7,1408.9-597.7z"/>
			</g>
			<g>
				<path class="st2" d="M1246.6-648.8c-11.6,0-21-9.4-21-21c0-11.5,9.4-20.8,21-20.8c11.5,0,20.9,9.3,20.9,20.8
					C1267.5-658.2,1258.1-648.8,1246.6-648.8z M1246.6-683c-7.4,0-13.4,5.9-13.4,13.2c0,7.3,6,13.3,13.4,13.3
					c7.4,0,13.3-6,13.3-13.3C1259.9-677,1254-683,1246.6-683z"/>
			</g>
			<g>
				<path class="st2" d="M1178.5-648.8c-11.6,0-21-9.4-21-21c0-11.5,9.4-20.8,21-20.8c11.6,0,21,9.3,21,20.8
					C1199.5-658.2,1190.1-648.8,1178.5-648.8z M1178.5-683c-7.4,0-13.4,5.9-13.4,13.2s6,13.3,13.4,13.3c7.4,0,13.3-6,13.3-13.3
					C1191.8-677,1185.9-683,1178.5-683z"/>
			</g>
			<g>
				<path class="st2" d="M1178.5-478.1c-11.6,0-21-9.4-21-20.9c0-11.6,9.4-21,21-21c11.6,0,21,9.4,21,21
					C1199.5-487.5,1190.1-478.1,1178.5-478.1z M1178.5-512.4c-7.4,0-13.4,6-13.4,13.4c0,7.3,6,13.3,13.4,13.3
					c7.4,0,13.3-6,13.3-13.3C1191.8-506.4,1185.9-512.4,1178.5-512.4z"/>
			</g>
			<g>
				<path class="st2" d="M1630.6-205.2c-11.6,0-20.9-9.3-20.9-20.8c0-11.6,9.3-21,20.9-21c11.5,0,20.9,9.4,20.9,21
					C1651.5-214.6,1642.1-205.2,1630.6-205.2z M1630.6-239.4c-7.5,0-13.3,5.8-13.3,13.4c0,7.2,6,13.2,13.3,13.2
					c7.4,0,13.3-6,13.3-13.2C1643.9-233.4,1638-239.4,1630.6-239.4z"/>
			</g>
			<g>
				<path class="st2" d="M1739.1-222.2c-11.6,0-21-9.4-21-21c0-11.5,9.4-20.9,21-20.9c11.6,0,20.9,9.4,20.9,20.9
					C1760-231.6,1750.7-222.2,1739.1-222.2z M1739.1-256.5c-7.5,0-13.3,5.8-13.3,13.3c0,7.3,6,13.4,13.3,13.4
					c7.3,0,13.3-6,13.3-13.4C1752.4-250.6,1746.4-256.5,1739.1-256.5z"/>
			</g>
			<g>
				<path class="st2" d="M1540.3-222.2c-11.5,0-20.9-9.4-20.9-21c0-11.5,9.4-20.9,20.9-20.9c11.6,0,20.9,9.4,20.9,20.9
					C1561.2-231.6,1551.9-222.2,1540.3-222.2z M1540.3-256.5c-7.5,0-13.3,5.8-13.3,13.3c0,7.3,6,13.4,13.3,13.4
					c7.3,0,13.3-6,13.3-13.4C1553.6-250.7,1547.8-256.5,1540.3-256.5z"/>
			</g>
			<g>
				<path class="st2" d="M1543.2-290.6c-11.6,0-20.9-9.3-20.9-20.8c0-11.6,9.3-21,20.9-21s20.9,9.4,20.9,21
					C1564.1-299.9,1554.8-290.6,1543.2-290.6z M1543.2-324.8c-7.5,0-13.3,5.8-13.3,13.4c0,7.2,6,13.2,13.3,13.2
					c7.3,0,13.3-6,13.3-13.2C1556.5-318.9,1550.6-324.8,1543.2-324.8z"/>
			</g>
			<g>
				<path class="st2" d="M1229.4-290.6c-11.5,0-20.9-9.3-20.9-20.8c0-11.6,9.3-21,20.9-21c11.6,0,21,9.4,21,21
					C1250.4-299.9,1241-290.6,1229.4-290.6z M1229.4-324.8c-7.3,0-13.3,6-13.3,13.4c0,7.2,6,13.2,13.3,13.2c7.4,0,13.4-6,13.4-13.2
					C1242.8-318.9,1236.9-324.8,1229.4-324.8z"/>
			</g>
			<g>
				<path class="st2" d="M1313.4-205.2c-11.5,0-20.9-9.3-20.9-20.8c0-11.6,9.4-21,20.9-21c11.6,0,21,9.4,21,21
					C1334.4-214.6,1325-205.2,1313.4-205.2z M1313.4-239.4c-7.4,0-13.3,6-13.3,13.4c0,7.2,6,13.2,13.3,13.2c7.4,0,13.4-6,13.4-13.2
					C1326.8-233.4,1320.8-239.4,1313.4-239.4z"/>
			</g>
			<g>
				<path class="st2" d="M1313.4-375.8c-11.5,0-20.9-9.4-20.9-21c0-11.6,9.4-21,20.9-21c11.6,0,21,9.4,21,21
					C1334.4-385.2,1325-375.8,1313.4-375.8z M1313.4-410.1c-7.4,0-13.3,6-13.3,13.4c0,7.3,6,13.3,13.3,13.3c7.4,0,13.4-6,13.4-13.3
					C1326.8-404.1,1320.8-410.1,1313.4-410.1z"/>
			</g>
			<g>
				<path class="st2" d="M757-358.8c-11.6,0-21-9.4-21-21c0-11.5,9.4-20.8,21-20.8c11.5,0,21,9.3,21,20.8
					C778-368.2,768.6-358.8,757-358.8z M757-393c-7.4,0-13.3,5.9-13.3,13.2c0,7.3,5.9,13.4,13.3,13.4c7.3,0,13.3-6.1,13.3-13.4
					C770.4-387.1,764.4-393,757-393z"/>
			</g>
			<g>
				<path class="st2" d="M1370.3-358.8c-11.5,0-20.9-9.3-20.9-20.8c0-11.6,9.3-21,20.9-21c11.6,0,21,9.4,21,21
					C1391.3-368.1,1381.8-358.8,1370.3-358.8z M1370.3-393c-7.3,0-13.3,6-13.3,13.4c0,7.2,6,13.2,13.3,13.2c7.4,0,13.4-6,13.4-13.2
					C1383.6-387.1,1377.8-393,1370.3-393z"/>
			</g>
			<g>
				<path class="st2" d="M904.6-427c-11.5,0-21-9.4-21-21c0-11.5,9.4-20.8,21-20.8s21,9.3,21,20.8C925.6-436.4,916.2-427,904.6-427z
					 M904.6-461.2c-7.4,0-13.3,5.9-13.3,13.2c0,7.3,5.9,13.4,13.3,13.4S918-440.7,918-448C918-455.3,912-461.2,904.6-461.2z"/>
			</g>
			<g>
				<path class="st2" d="M791.7-427c-11.5,0-21-9.4-21-21c0-11.5,9.4-20.8,21-20.8c11.5,0,21,9.3,21,20.8
					C812.6-436.4,803.2-427,791.7-427z M791.7-461.2c-7.4,0-13.3,5.9-13.3,13.2c0,7.3,5.9,13.4,13.3,13.4c7.4,0,13.3-6.1,13.3-13.4
					C805-455.3,799.1-461.2,791.7-461.2z"/>
			</g>
			<g>
				<path class="st2" d="M319.6-290.6c-11.5,0-21-9.3-21-20.8c0-11.6,9.4-21,21-21c11.5,0,21,9.4,21,21
					C340.5-299.9,331.1-290.6,319.6-290.6z M319.6-324.8c-7.4,0-13.3,6-13.3,13.4c0,7.3,5.9,13.2,13.3,13.2
					c7.4,0,13.3-5.9,13.3-13.2C332.9-318.7,327-324.8,319.6-324.8z"/>
			</g>
			<g>
				<path class="st2" d="M887.5-222.2c-11.6,0-21-9.4-21-21c0-11.5,9.4-20.9,21-20.9c11.5,0,21,9.4,21,20.9
					C908.5-231.6,899-222.2,887.5-222.2z M887.5-256.5c-7.4,0-13.3,6-13.3,13.3c0,7.3,5.9,13.4,13.3,13.4c7.3,0,13.3-6,13.3-13.4
					C900.8-250.6,894.8-256.5,887.5-256.5z"/>
			</g>
			<g>
				<path class="st2" d="M461.4-358.8c-11.6,0-21-9.3-21-20.8c0-11.6,9.4-21,21-21c11.5,0,20.9,9.4,20.9,21
					C482.3-368.1,472.9-358.8,461.4-358.8z M461.4-393c-7.4,0-13.4,6.1-13.4,13.4c0,7.3,6,13.2,13.4,13.2c7.3,0,13.3-5.9,13.3-13.2
					C474.7-386.9,468.7-393,461.4-393z"/>
			</g>
			<g>
				<path class="st2" d="M196.2-358.8c-11.6,0-21-9.3-21-20.8c0-11.6,9.4-21,21-21c11.5,0,21,9.4,21,21
					C217.2-368.1,207.7-358.8,196.2-358.8z M196.2-393c-7.4,0-13.4,6.1-13.4,13.4c0,7.3,6,13.2,13.4,13.2c7.3,0,13.3-5.9,13.3-13.2
					C209.5-386.9,203.5-393,196.2-393z"/>
			</g>
			<g>
				<path class="st2" d="M960-563.4c-11.6,0-21-9.4-21-21c0-11.6,9.4-21,21-21c11.6,0,21,9.4,21,21C981-572.8,971.6-563.4,960-563.4
					z M960-597.7c-7.4,0-13.4,6-13.4,13.4c0,7.3,6,13.3,13.4,13.3c7.4,0,13.4-6,13.4-13.3C973.4-591.7,967.4-597.7,960-597.7z"/>
			</g>
			<g>
				<path class="st2" d="M697.3-478.1c-11.5,0-21-9.4-21-20.9c0-11.6,9.4-21,21-21s21,9.4,21,21
					C718.3-487.5,708.9-478.1,697.3-478.1z M697.3-512.4c-7.4,0-13.3,6-13.3,13.4c0,7.3,5.9,13.3,13.3,13.3s13.3-6,13.3-13.3
					C710.7-506.4,704.7-512.4,697.3-512.4z"/>
			</g>
			<g>
				<path class="st2" d="M638.1-563.4c-11.5,0-21-9.4-21-21c0-11.5,9.4-20.8,21-20.8c11.6,0,21,9.3,21,20.8
					C659-572.8,649.7-563.4,638.1-563.4z M638.1-597.6c-7.3,0-13.3,5.9-13.3,13.2c0,7.3,6,13.3,13.3,13.3c7.4,0,13.3-6,13.3-13.3
					C651.4-591.7,645.5-597.6,638.1-597.6z"/>
			</g>
			<g>
				<path class="st2" d="M374.2-495.2c-11.5,0-21-9.4-21-21c0-11.5,9.4-20.8,21-20.8c11.6,0,21,9.3,21,20.8
					C395.2-504.6,385.8-495.2,374.2-495.2z M374.2-529.4c-7.3,0-13.3,5.9-13.3,13.2c0,7.3,6,13.4,13.3,13.4c7.4,0,13.3-6,13.3-13.4
					C387.5-523.5,381.6-529.4,374.2-529.4z"/>
			</g>
			<g>
				<path class="st2" d="M265.5-563.4c-11.5,0-21-9.4-21-21c0-11.5,9.4-20.8,21-20.8c11.5,0,21,9.3,21,20.8
					C286.5-572.8,277.1-563.4,265.5-563.4z M265.5-597.6c-7.4,0-13.3,5.9-13.3,13.2c0,7.3,5.9,13.3,13.3,13.3
					c7.4,0,13.3-6,13.3-13.3C278.9-591.7,273-597.6,265.5-597.6z"/>
			</g>
			<g>
				<path class="st2" d="M22-427c-11.5,0-21-9.4-21-21c0-11.5,9.4-20.8,21-20.8s21,9.3,21,20.8C43-436.4,33.5-427,22-427z M22-461.2
					c-7.4,0-13.3,5.9-13.3,13.2c0,7.5,5.8,13.4,13.3,13.4c7.3,0,13.3-6.1,13.3-13.4C35.3-455.3,29.3-461.2,22-461.2z"/>
			</g>
			<g>
				<path class="st2" d="M663.1-631.6c-11.6,0-21-9.4-21-21c0-11.6,9.4-21,21-21c11.5,0,21,9.4,21,21
					C684.1-641,674.6-631.6,663.1-631.6z M663.1-666c-7.4,0-13.3,6-13.3,13.4c0,7.3,5.9,13.4,13.3,13.4c7.3,0,13.3-6.1,13.3-13.4
					C676.4-660,670.4-666,663.1-666z"/>
			</g>
			<g>
				<path class="st2" d="M97.5-631.6c-11.6,0-21-9.4-21-21c0-11.6,9.4-21,21-21c11.5,0,21,9.4,21,21C118.5-641,109-631.6,97.5-631.6
					z M97.5-666c-7.4,0-13.3,6.1-13.3,13.4c0,7.3,5.9,13.4,13.3,13.4c7.3,0,13.3-6.1,13.3-13.4C110.8-659.9,104.8-666,97.5-666z"/>
			</g>
			<g>
				<path class="st2" d="M734.3-563.4c-11.5,0-21-9.4-21-21c0-11.5,9.4-20.8,21-20.8s21,9.3,21,20.8
					C755.2-572.8,745.8-563.4,734.3-563.4z M734.3-597.6c-7.4,0-13.3,5.9-13.3,13.2c0,7.3,5.9,13.3,13.3,13.3s13.3-6,13.3-13.3
					C747.6-591.7,741.7-597.6,734.3-597.6z"/>
			</g>
			<g>
				<path class="st2" d="M967.6-495.2c-11.6,0-21-9.4-21-21c0-11.5,9.4-20.8,21-20.8c11.6,0,21,9.3,21,20.8
					C988.6-504.6,979.2-495.2,967.6-495.2z M967.6-529.4c-7.4,0-13.3,5.9-13.3,13.2c0,7.3,6,13.4,13.3,13.4c7.4,0,13.4-6,13.4-13.4
					C981-523.5,975-529.4,967.6-529.4z"/>
			</g>
			<g>
				<path class="st2" d="M1661.6-495.2c-11.5,0-20.9-9.4-20.9-21c0-11.5,9.3-20.8,20.9-20.8c11.6,0,21,9.3,21,20.8
					C1682.6-504.6,1673.2-495.2,1661.6-495.2z M1661.6-529.4c-7.3,0-13.3,5.9-13.3,13.2c0,7.3,6,13.4,13.3,13.4
					c7.5,0,13.4-5.9,13.4-13.4C1675-523.5,1669-529.4,1661.6-529.4z"/>
			</g>
			<g>
				<rect x="1423.3" y="-588.2" class="st2" width="491.9" height="7.6"/>
			</g>
			<g>
				<rect x="1678.8" y="-520" class="st2" width="236.4" height="7.6"/>
			</g>
			<g>
				<polygon class="st2" points="1915.2,-444.2 1516.7,-444.2 1516.7,-512.4 1242.8,-512.4 1242.8,-652.6 1250.4,-652.6 
					1250.4,-520 1524.3,-520 1524.3,-451.8 1915.2,-451.8 				"/>
			</g>
			<g>
				<polygon class="st2" points="1915.2,-375.8 1402.8,-375.8 1402.8,-444.2 1123.4,-444.2 1123.4,-512.4 999.2,-512.4 
					999.2,-588.2 1068,-588.2 1068,-652.6 1075.6,-652.6 1075.6,-580.6 1006.8,-580.6 1006.8,-520 1131,-520 1131,-451.8 
					1410.4,-451.8 1410.4,-383.4 1915.2,-383.4 				"/>
			</g>
			<g>
				<polygon class="st2" points="1634.4,-243.2 1626.8,-243.2 1626.8,-315.2 1915.2,-315.2 1915.2,-307.6 1634.4,-307.6 				"/>
			</g>
			<g>
				<rect x="1246.6" y="-315.2" class="st2" width="281.8" height="7.6"/>
			</g>
			<g>
				<polygon class="st2" points="1354.8,-375.8 1050.8,-375.8 1050.8,-444.2 921.8,-444.2 921.8,-451.8 1058.4,-451.8 
					1058.4,-383.4 1354.8,-383.4 				"/>
			</g>
			<g>
				<polygon class="st2" points="701.1,-516.2 693.5,-516.2 693.5,-656.4 822.9,-656.4 822.9,-588.2 943.3,-588.2 943.3,-580.6 
					815.3,-580.6 815.3,-648.8 701.1,-648.8 				"/>
			</g>
			<g>
				<polygon class="st2" points="950.4,-512.4 782.6,-512.4 782.6,-580.6 751.4,-580.6 751.4,-588.2 790.2,-588.2 790.2,-520 
					950.4,-520 				"/>
			</g>
			<g>
				<polygon class="st2" points="644.6,-307.6 336.7,-307.6 336.7,-315.2 636.9,-315.2 636.9,-375.8 550.3,-375.8 550.3,-451.8 
					774.5,-451.8 774.5,-444.2 557.8,-444.2 557.8,-383.4 644.6,-383.4 				"/>
			</g>
			<g>
				<polygon class="st2" points="444.2,-375.8 356,-375.8 356,-444.2 296.7,-444.2 296.7,-375.9 213.3,-375.9 213.3,-383.6 
					289.2,-383.6 289.2,-451.8 363.6,-451.8 363.6,-383.4 444.2,-383.4 				"/>
			</g>
			<g>
				<polygon class="st2" points="465.1,-580.6 315.7,-580.6 315.7,-648.8 114.7,-648.8 114.7,-656.4 323.4,-656.4 323.4,-588.2 
					457.6,-588.2 457.6,-656.4 644.8,-656.4 644.8,-648.8 465.1,-648.8 				"/>
			</g>
			<g>
				<polygon class="st2" points="508.5,-512.4 390.1,-512.4 390.1,-520 500.9,-520 500.9,-588.2 620.9,-588.2 620.9,-580.6 
					508.5,-580.6 				"/>
			</g>
			<g>
				<polygon class="st2" points="197.3,-444.2 43.6,-444.2 43.6,-451.8 189.7,-451.8 189.7,-512.4 134.7,-512.4 134.7,-588.2 
					248.4,-588.2 248.4,-580.6 142.3,-580.6 142.3,-520 197.3,-520 				"/>
			</g>
			<g>
				<rect x="1756.2" y="-247" class="st2" width="159" height="7.6"/>
			</g>
			<g>
				<polygon class="st2" points="1360.2,-171.2 1210.9,-171.2 1210.9,-239.4 1070.8,-239.4 1070.8,-307.6 913.2,-307.6 
					913.2,-375.9 774.5,-375.9 774.5,-383.6 920.8,-383.6 920.8,-315.2 1078.4,-315.2 1078.4,-247 1218.5,-247 1218.5,-178.8 
					1352.6,-178.8 1352.6,-247 1523.6,-247 1523.6,-239.4 1360.2,-239.4 				"/>
			</g>
			<g>
				<rect x="1174.7" y="-652.6" class="st2" width="7.6" height="136.4"/>
			</g>
			<g>
				<rect x="1309.6" y="-379.8" class="st2" width="7.6" height="136.5"/>
			</g>
			<g>
				<polygon class="st2" points="702.1,-171.2 481.7,-171.2 481.7,-239.4 268.6,-239.4 268.6,-307.6 1.8,-307.6 1.8,-315.2 
					276.2,-315.2 276.2,-247 489.4,-247 489.4,-178.8 694.5,-178.8 694.5,-247 869.7,-247 869.7,-239.4 702.1,-239.4 				"/>
			</g>
			<g>
				<rect x="541.2" y="-247" class="st2" width="107.6" height="7.6"/>
			</g>
		</g>
		<g>
			<g>
				<path class="st2" d="M289.5,968.8c-11.6,0-21-9.4-21-21s9.4-21,21-21c11.5,0,20.9,9.4,20.9,21
					C310.4,959.4,301,968.8,289.5,968.8z M289.5,934.5c-7.4,0-13.4,5.9-13.4,13.3s5.9,13.3,13.4,13.3c7.3,0,13.3-6,13.3-13.3
					C302.7,940.4,296.7,934.5,289.5,934.5z"/>
			</g>
			<g>
				<path class="st2" d="M180.9,986c-11.5,0-20.8-9.4-20.8-21c0-11.5,9.3-21,20.8-21c11.6,0,21,9.4,21,21S192.5,986,180.9,986z
					 M180.9,951.6c-7.3,0-13.3,5.9-13.3,13.3c0,7.4,6,13.3,13.3,13.3c7.4,0,13.4-5.9,13.4-13.3C194.3,957.5,188.4,951.6,180.9,951.6
					z"/>
			</g>
			<g>
				<path class="st2" d="M379.7,986c-11.6,0-20.9-9.4-20.9-21c0-11.5,9.3-21,20.9-21c11.5,0,20.9,9.4,20.9,21
					C400.6,976.5,391.2,986,379.7,986z M379.7,951.6c-7.5,0-13.3,5.8-13.3,13.3c0,7.4,5.9,13.3,13.3,13.3c7.3,0,13.3-5.9,13.3-13.3
					C392.9,957.5,387.1,951.6,379.7,951.6z"/>
			</g>
			<g>
				<path class="st2" d="M376.8,1054.1c-11.5,0-20.9-9.4-20.9-21c0-11.5,9.4-21,20.9-21c11.5,0,20.9,9.4,20.9,21
					C397.7,1044.8,388.3,1054.1,376.8,1054.1z M376.8,1019.8c-7.3,0-13.3,6-13.3,13.3c0,7.5,5.8,13.4,13.3,13.4
					c7.5,0,13.3-5.9,13.3-13.4C390.1,1025.8,384.1,1019.8,376.8,1019.8z"/>
			</g>
			<g>
				<path class="st2" d="M690.6,1054.1c-11.5,0-21-9.4-21-21c0-11.5,9.4-21,21-21c11.6,0,20.9,9.4,20.9,21
					C711.5,1044.8,702.2,1054.1,690.6,1054.1z M690.6,1019.8c-7.3,0-13.3,6-13.3,13.3c0,7.5,5.9,13.4,13.3,13.4
					c7.3,0,13.3-6,13.3-13.4C703.9,1025.8,697.9,1019.8,690.6,1019.8z"/>
			</g>
			<g>
				<path class="st2" d="M606.6,968.8c-11.6,0-21-9.4-21-21c0-11.5,9.4-21,21-21c11.5,0,21,9.4,21,21S618.1,968.8,606.6,968.8z
					 M606.6,934.5c-7.4,0-13.3,5.9-13.3,13.3c0,7.3,5.9,13.3,13.3,13.3c7.3,0,13.3-6,13.3-13.3C619.9,940.4,613.9,934.5,606.6,934.5
					z"/>
			</g>
			<g>
				<path class="st2" d="M606.6,1139.5c-11.6,0-21-9.4-21-21c0-11.6,9.4-21,21-21c11.5,0,21,9.4,21,21
					C627.6,1130.1,618.1,1139.5,606.6,1139.5z M606.6,1105.2c-7.4,0-13.3,5.9-13.3,13.3c0,7.3,5.9,13.3,13.3,13.3
					c7.3,0,13.3-6,13.3-13.3C619.9,1111.2,613.9,1105.2,606.6,1105.2z"/>
			</g>
			<g>
				<path class="st2" d="M1163,1122.4c-11.5,0-20.9-9.4-20.9-21c0-11.5,9.4-20.8,20.9-20.8c11.6,0,21,9.3,21,20.8
					C1183.9,1112.9,1174.5,1122.4,1163,1122.4z M1163,1088.2c-7.4,0-13.3,6-13.3,13.3c0,7.3,6,13.3,13.3,13.3
					c7.4,0,13.4-6,13.4-13.3C1176.3,1094.1,1170.4,1088.2,1163,1088.2z"/>
			</g>
			<g>
				<path class="st2" d="M549.7,1122.4c-11.6,0-21-9.4-21-21c0-11.6,9.4-21,21-21c11.5,0,20.9,9.4,20.9,21
					C570.6,1112.9,561.3,1122.4,549.7,1122.4z M549.7,1088c-7.4,0-13.3,6-13.3,13.4c0,7.4,5.8,13.3,13.3,13.3
					c7.3,0,13.3-6,13.3-13.3C563,1094,557,1088,549.7,1088z"/>
			</g>
			<g>
				<path class="st2" d="M1015.4,1190.6c-11.6,0-21-9.4-21-21c0-11.5,9.4-20.8,21-20.8c11.6,0,21,9.4,21,20.8
					C1036.3,1181.1,1026.9,1190.6,1015.4,1190.6z M1015.4,1156.4c-7.4,0-13.3,5.9-13.3,13.2c0,7.4,6,13.3,13.3,13.3
					c7.4,0,13.4-5.9,13.4-13.3C1028.7,1162.3,1022.7,1156.4,1015.4,1156.4z"/>
			</g>
			<g>
				<path class="st2" d="M1128.3,1190.6c-11.6,0-21-9.4-21-21c0-11.5,9.4-20.8,21-20.8c11.6,0,21,9.4,21,20.8
					C1149.3,1181.1,1139.9,1190.6,1128.3,1190.6z M1128.3,1156.4c-7.4,0-13.3,5.9-13.3,13.2c0,7.4,6,13.3,13.3,13.3
					c7.4,0,13.4-5.9,13.4-13.3C1141.7,1162.3,1135.7,1156.4,1128.3,1156.4z"/>
			</g>
			<g>
				<path class="st2" d="M1600.4,1054.1c-11.6,0-21-9.4-21-21c0-11.5,9.4-21,21-21c11.6,0,21,9.4,21,21
					C1621.4,1044.8,1612,1054.1,1600.4,1054.1z M1600.4,1019.8c-7.4,0-13.4,6-13.4,13.3c0,7.4,6,13.4,13.4,13.4
					c7.4,0,13.3-6,13.3-13.4C1613.8,1025.8,1607.8,1019.8,1600.4,1019.8z"/>
			</g>
			<g>
				<path class="st2" d="M1032.5,986c-11.5,0-20.9-9.4-20.9-21c0-11.5,9.4-21,20.9-21c11.6,0,21,9.4,21,21
					C1053.5,976.5,1044.1,986,1032.5,986z M1032.5,951.6c-7.4,0-13.3,5.9-13.3,13.3c0,7.4,6,13.3,13.3,13.3
					c7.4,0,13.4-5.9,13.4-13.3C1045.9,957.6,1039.9,951.6,1032.5,951.6z"/>
			</g>
			<g>
				<path class="st2" d="M1458.6,1122.4c-11.6,0-21-9.4-21-21c0-11.6,9.4-21,21-21c11.6,0,21,9.4,21,21
					C1479.6,1112.9,1470.2,1122.4,1458.6,1122.4z M1458.6,1088c-7.4,0-13.4,6-13.4,13.4c0,7.3,6,13.3,13.4,13.3
					c7.4,0,13.4-6,13.4-13.3C1472,1094,1466,1088,1458.6,1088z"/>
			</g>
			<g>
				<path class="st2" d="M1723.9,1122.4c-11.6,0-21-9.4-21-21c0-11.6,9.4-21,21-21c11.6,0,21,9.4,21,21
					C1744.8,1112.9,1735.4,1122.4,1723.9,1122.4z M1723.9,1088c-7.4,0-13.4,6-13.4,13.4c0,7.3,6,13.3,13.4,13.3
					c7.4,0,13.3-6,13.3-13.3C1737.2,1094,1731.2,1088,1723.9,1088z"/>
			</g>
			<g>
				<polygon class="st2" points="293.2,1037 4.8,1037 4.8,1029.4 285.6,1029.4 285.6,965 293.2,965 				"/>
			</g>
			<g>
				<rect x="391.6" y="1029.4" class="st2" width="281.8" height="7.6"/>
			</g>
			<g>
				<polygon class="st2" points="998.2,1173.4 861.6,1173.4 861.6,1105.2 565.2,1105.2 565.2,1097.6 869.2,1097.6 869.2,1165.8 
					998.2,1165.8 				"/>
			</g>
			<g>
				<polygon class="st2" points="1369.7,1173.4 1145.5,1173.4 1145.5,1165.8 1362.1,1165.8 1362.1,1105.2 1275.4,1105.2 
					1275.4,1029.4 1583.3,1029.4 1583.3,1037 1283.1,1037 1283.1,1097.6 1369.7,1097.6 				"/>
			</g>
			<g>
				<polygon class="st2" points="1630.9,1173.4 1556.4,1173.4 1556.4,1105.2 1475.8,1105.2 1475.8,1097.6 1564,1097.6 1564,1165.8 
					1623.2,1165.8 1623.2,1097.6 1706.7,1097.6 1706.7,1105.2 1630.9,1105.2 				"/>
			</g>
			<g>
				<rect x="4.8" y="961.2" class="st2" width="159" height="7.6"/>
			</g>
			<g>
				<polygon class="st2" points="1145.5,1105.2 999.2,1105.2 999.2,1037 841.6,1037 841.6,968.8 701.5,968.8 701.5,900.5 
					567.4,900.5 567.4,968.8 396.4,968.8 396.4,961.2 559.8,961.2 559.8,893 709.1,893 709.1,961.2 849.2,961.2 849.2,1029.4 
					1006.8,1029.4 1006.8,1097.6 1145.5,1097.6 				"/>
			</g>
			<g>
				<rect x="602.8" y="965" class="st2" width="7.6" height="136.4"/>
			</g>
			<g>
				<polygon class="st2" points="1915.2,1037 1641.7,1037 1641.7,968.8 1429.3,968.8 1429.3,900.5 1224.9,900.5 1224.9,968.8 
					1050.3,968.8 1050.3,961.2 1217.3,961.2 1217.3,893 1436.9,893 1436.9,961.2 1649.3,961.2 1649.3,1029.4 1915.2,1029.4 				"/>
			</g>
			<g>
				<rect x="1271.3" y="961.2" class="st2" width="107.5" height="7.6"/>
			</g>
		</g>
		<g>
			<rect x="4.8" y="834.3" class="st2" width="321.6" height="7.6"/>
		</g>
		<g>
			<path class="st2" d="M345.4,859.1c-11.6,0-21-9.4-21-21c0-11.6,9.4-21,21-21c11.5,0,21,9.4,21,21
				C366.4,849.7,357,859.1,345.4,859.1z M345.4,824.7c-7.4,0-13.4,6-13.4,13.4c0,7.3,6,13.3,13.4,13.3c7.3,0,13.3-6,13.3-13.3
				C358.8,830.7,352.8,824.7,345.4,824.7z"/>
		</g>
		<g>
			<path class="st2" d="M848.2,876.1c-11.5,0-20.9-9.4-20.9-20.8c0-11.6,9.4-21,20.9-21c11.5,0,21,9.4,21,21
				C869.2,866.8,859.8,876.1,848.2,876.1z M848.2,842c-7.5,0-13.3,5.8-13.3,13.3c0,7.2,5.9,13.2,13.3,13.2c7.4,0,13.3-6,13.3-13.2
				C861.6,847.9,855.6,842,848.2,842z"/>
		</g>
		<g>
			<path class="st2" d="M511.1,790.9c-11.6,0-20.9-9.4-20.9-21c0-11.5,9.3-21,20.9-21c11.5,0,21,9.4,21,21
				C532,781.5,522.6,790.9,511.1,790.9z M511.1,756.5c-7.3,0-13.3,6-13.3,13.3c0,7.4,5.9,13.4,13.3,13.4s13.3-6,13.3-13.4
				C524.4,762.5,518.5,756.5,511.1,756.5z"/>
		</g>
		<g>
			<path class="st2" d="M673.4,876.1c-11.5,0-21-9.4-21-20.8c0-11.6,9.4-21,21-21c11.6,0,21,9.4,21,21
				C694.4,866.8,685,876.1,673.4,876.1z M673.4,842c-7.3,0-13.3,5.9-13.3,13.3c0,7.2,6,13.2,13.3,13.2c7.4,0,13.4-6,13.4-13.2
				C686.8,847.9,680.8,842,673.4,842z"/>
		</g>
		<g>
			<path class="st2" d="M289.5,432.5c-11.6,0-21-9.4-21-21c0-11.5,9.4-20.8,21-20.8c11.5,0,20.9,9.3,20.9,20.8
				C310.4,423.1,301,432.5,289.5,432.5z M289.5,398.3c-7.4,0-13.4,6-13.4,13.2c0,7.4,6,13.4,13.4,13.4c7.4,0,13.3-5.9,13.3-13.4
				C302.7,404.3,296.7,398.3,289.5,398.3z"/>
		</g>
		<g>
			<path class="st2" d="M181,449.7c-11.5,0-20.9-9.4-20.9-21c0-11.5,9.4-20.9,20.9-20.9c11.6,0,20.9,9.4,20.9,20.9
				C201.9,440.3,192.6,449.7,181,449.7z M181,415.4c-7.3,0-13.3,6-13.3,13.3c0,7.4,6,13.4,13.3,13.4c7.5,0,13.3-5.9,13.3-13.4
				C194.3,421.3,188.3,415.4,181,415.4z"/>
		</g>
		<g>
			<path class="st2" d="M379.7,449.7c-11.6,0-20.9-9.4-20.9-21c0-11.5,9.3-20.9,20.9-20.9c11.5,0,21,9.4,21,20.9
				C400.6,440.3,391.2,449.7,379.7,449.7z M379.7,415.4c-7.3,0-13.3,6-13.3,13.3c0,7.5,5.8,13.4,13.3,13.4c7.3,0,13.3-6,13.3-13.4
				C393,421.3,387,415.4,379.7,415.4z"/>
		</g>
		<g>
			<path class="st2" d="M376.8,517.9c-11.5,0-20.9-9.4-20.9-21c0-11.5,9.4-20.8,20.9-20.8s21,9.3,21,20.8
				C397.8,508.5,388.3,517.9,376.8,517.9z M376.8,483.8c-7.3,0-13.3,5.9-13.3,13.2c0,7.4,5.8,13.3,13.3,13.3c7.4,0,13.3-6,13.3-13.3
				C390.1,489.7,384.2,483.8,376.8,483.8z"/>
		</g>
		<g>
			<path class="st2" d="M690.6,517.9c-11.5,0-21-9.4-21-21c0-11.5,9.4-20.8,21-20.8c11.6,0,20.9,9.3,20.9,20.8
				C711.5,508.5,702.2,517.9,690.6,517.9z M690.6,483.8c-7.3,0-13.3,5.9-13.3,13.2c0,7.4,5.9,13.3,13.3,13.3
				c7.5,0,13.3-5.9,13.3-13.3C703.9,489.7,697.9,483.8,690.6,483.8z"/>
		</g>
		<g>
			<path class="st2" d="M606.6,432.5c-11.6,0-20.9-9.4-20.9-21c0-11.5,9.3-20.8,20.9-20.8c11.5,0,21,9.3,21,20.8
				C627.6,423.1,618.1,432.5,606.6,432.5z M606.6,398.3c-7.3,0-13.3,6-13.3,13.2c0,7.5,5.8,13.4,13.3,13.4c7.3,0,13.3-6,13.3-13.4
				C619.9,404.3,613.9,398.3,606.6,398.3z"/>
		</g>
		<g>
			<path class="st2" d="M606.6,603.3c-11.6,0-20.9-9.4-20.9-21c0-11.5,9.3-21,20.9-21c11.5,0,21,9.4,21,21
				C627.6,593.9,618.1,603.3,606.6,603.3z M606.6,568.9c-7.3,0-13.3,6-13.3,13.3c0,7.5,5.8,13.4,13.3,13.4c7.3,0,13.3-6,13.3-13.4
				C619.9,574.9,613.9,568.9,606.6,568.9z"/>
		</g>
		<g>
			<path class="st2" d="M1163,586.1c-11.5,0-20.9-9.3-20.9-20.8s9.4-21,20.9-21c11.6,0,21,9.4,21,21S1174.5,586.1,1163,586.1z
				 M1163,551.9c-7.4,0-13.3,6-13.3,13.3c0,7.3,6,13.3,13.3,13.3c7.4,0,13.4-6,13.4-13.3C1176.3,557.9,1170.4,551.9,1163,551.9z"/>
		</g>
		<g>
			<path class="st2" d="M549.7,586.1c-11.6,0-21-9.4-21-21c0-11.5,9.4-20.8,21-20.8c11.5,0,20.9,9.4,20.9,20.8
				C570.6,576.7,561.3,586.1,549.7,586.1z M549.7,551.9c-7.4,0-13.3,6-13.3,13.2c0,7.4,5.9,13.4,13.3,13.4c7.4,0,13.3-5.9,13.3-13.4
				C563,557.9,557,551.9,549.7,551.9z"/>
		</g>
		<g>
			<path class="st2" d="M1015.4,654.3c-11.6,0-21-9.3-21-20.8c0-11.6,9.4-21,21-21c11.6,0,21,9.4,21,21
				C1036.3,645,1026.9,654.3,1015.4,654.3z M1015.4,620.1c-7.4,0-13.3,6-13.3,13.4c0,7.2,6,13.2,13.3,13.2c7.4,0,13.4-6,13.4-13.2
				C1028.7,626.1,1022.7,620.1,1015.4,620.1z"/>
		</g>
		<g>
			<path class="st2" d="M1128.3,654.3c-11.6,0-21-9.3-21-20.8c0-11.6,9.4-21,21-21c11.6,0,21,9.4,21,21
				C1149.3,645,1139.9,654.3,1128.3,654.3z M1128.3,620.1c-7.4,0-13.3,6-13.3,13.4c0,7.2,6,13.2,13.3,13.2s13.4-6,13.4-13.2
				C1141.7,626.1,1135.7,620.1,1128.3,620.1z"/>
		</g>
		<g>
			<path class="st2" d="M1600.4,517.9c-11.6,0-21-9.4-21-21c0-11.5,9.4-20.8,21-20.8c11.6,0,21,9.3,21,20.8
				C1621.4,508.5,1612,517.9,1600.4,517.9z M1600.4,483.8c-7.4,0-13.4,5.9-13.4,13.2c0,7.3,6,13.3,13.4,13.3c7.4,0,13.3-6,13.3-13.3
				C1613.8,489.7,1607.8,483.8,1600.4,483.8z"/>
		</g>
		<g>
			<path class="st2" d="M1032.5,449.7c-11.5,0-20.9-9.4-20.9-21c0-11.5,9.4-20.9,20.9-20.9c11.6,0,21,9.4,21,20.9
				C1053.5,440.3,1044.1,449.7,1032.5,449.7z M1032.5,415.4c-7.4,0-13.3,6-13.3,13.3c0,7.4,6,13.4,13.3,13.4c7.4,0,13.4-6,13.4-13.4
				C1045.9,421.3,1039.9,415.4,1032.5,415.4z"/>
		</g>
		<g>
			<path class="st2" d="M1458.6,586.1c-11.6,0-21-9.4-21-21c0-11.5,9.4-20.8,21-20.8c11.6,0,21,9.4,21,20.8
				C1479.6,576.7,1470.2,586.1,1458.6,586.1z M1458.6,551.9c-7.4,0-13.4,6-13.4,13.2c0,7.4,6,13.4,13.4,13.4c7.4,0,13.4-6,13.4-13.4
				C1472,557.9,1466,551.9,1458.6,551.9z"/>
		</g>
		<g>
			<path class="st2" d="M1723.9,586.1c-11.6,0-21-9.4-21-21c0-11.5,9.4-20.8,21-20.8c11.6,0,21,9.4,21,20.8
				C1744.8,576.7,1735.4,586.1,1723.9,586.1z M1723.9,551.9c-7.4,0-13.4,6-13.4,13.2c0,7.4,6,13.4,13.4,13.4c7.4,0,13.3-6,13.3-13.4
				C1737.2,557.9,1731.2,551.9,1723.9,551.9z"/>
		</g>
		<g>
			<path class="st2" d="M960,790.9c-11.6,0-21-9.4-21-21c0-11.5,9.4-21,21-21c11.6,0,21,9.4,21,21C981,781.5,971.6,790.9,960,790.9z
				 M960,756.5c-7.4,0-13.4,6-13.4,13.3c0,7.4,6,13.4,13.4,13.4c7.4,0,13.4-6,13.4-13.4C973.4,762.5,967.4,756.5,960,756.5z"/>
		</g>
		<g>
			<path class="st2" d="M1222.7,705.5c-11.6,0-21-9.4-21-21s9.4-21,21-21c11.6,0,21,9.4,21,21S1234.3,705.5,1222.7,705.5z
				 M1222.7,671.2c-7.4,0-13.4,5.9-13.4,13.3c0,7.3,6,13.3,13.4,13.3c7.4,0,13.4-6,13.4-13.3C1236,677.1,1230.1,671.2,1222.7,671.2z
				"/>
		</g>
		<g>
			<path class="st2" d="M1281.9,790.7c-11.6,0-21-9.3-21-20.8s9.4-21,21-21c11.6,0,21,9.4,21,21
				C1302.9,781.4,1293.5,790.7,1281.9,790.7z M1281.9,756.5c-7.4,0-13.4,6-13.4,13.3c0,7.3,6,13.3,13.4,13.3c7.4,0,13.3-6,13.3-13.3
				C1295.3,762.5,1289.3,756.5,1281.9,756.5z"/>
		</g>
		<g>
			<path class="st2" d="M1545.8,722.5c-11.6,0-21-9.4-21-20.8c0-11.5,9.4-21,21-21c11.5,0,20.9,9.4,20.9,21
				C1566.8,713.2,1557.4,722.5,1545.8,722.5z M1545.8,688.4c-7.4,0-13.4,5.9-13.4,13.3c0,7.3,6,13.2,13.4,13.2
				c7.4,0,13.3-5.9,13.3-13.2C1559.2,694.3,1553.2,688.4,1545.8,688.4z"/>
		</g>
		<g>
			<path class="st2" d="M1654.5,790.7c-11.6,0-21-9.3-21-20.8c0-11.5,9.4-21,21-21c11.6,0,21,9.4,21,21
				C1675.4,781.4,1666,790.7,1654.5,790.7z M1654.5,756.5c-7.4,0-13.3,6-13.3,13.3c0,7.3,6,13.3,13.3,13.3c7.4,0,13.4-6,13.4-13.3
				C1667.8,762.5,1661.8,756.5,1654.5,756.5z"/>
		</g>
		<g>
			<path class="st2" d="M1898,654.3c-11.6,0-21-9.3-21-20.8c0-11.6,9.4-21,21-21c11.6,0,21,9.4,21,21
				C1919,645,1909.6,654.3,1898,654.3z M1898,620.1c-7.4,0-13.3,6-13.3,13.4c0,7.2,6,13.2,13.3,13.2c7.4,0,13.4-6,13.4-13.2
				C1911.4,626,1905.5,620.1,1898,620.1z"/>
		</g>
		<g>
			<path class="st2" d="M1256.9,859.1c-11.5,0-20.9-9.4-20.9-21c0-11.6,9.4-21,20.9-21c11.6,0,21,9.4,21,21
				C1277.9,849.7,1268.5,859.1,1256.9,859.1z M1256.9,824.7c-7.4,0-13.3,6-13.3,13.4c0,7.3,6,13.3,13.3,13.3c7.4,0,13.4-6,13.4-13.3
				C1270.3,830.7,1264.3,824.7,1256.9,824.7z"/>
		</g>
		<g>
			<path class="st2" d="M1822.5,859.1c-11.6,0-21-9.4-21-21c0-11.6,9.4-21,21-21c11.6,0,21,9.4,21,21
				C1843.5,849.7,1834.1,859.1,1822.5,859.1z M1822.5,824.7c-7.4,0-13.3,6-13.3,13.4c0,7.3,6,13.3,13.3,13.3c7.4,0,13.4-6,13.4-13.3
				C1835.9,830.7,1829.9,824.7,1822.5,824.7z"/>
		</g>
		<g>
			<path class="st2" d="M1185.7,790.7c-11.6,0-21-9.3-21-20.8s9.4-21,21-21s21,9.4,21,21S1197.3,790.7,1185.7,790.7z M1185.7,756.5
				c-7.4,0-13.4,6-13.4,13.3c0,7.3,6,13.3,13.4,13.3s13.4-6,13.4-13.3C1199.1,762.5,1193.1,756.5,1185.7,756.5z"/>
		</g>
		<g>
			<path class="st2" d="M952.4,722.5c-11.6,0-21-9.4-21-20.8c0-11.5,9.4-21,21-21s21,9.4,21,21C973.4,713.2,964,722.5,952.4,722.5z
				 M952.4,688.4c-7.4,0-13.4,5.9-13.4,13.3c0,7.3,6,13.2,13.4,13.2s13.3-5.9,13.3-13.2C965.7,694.3,959.8,688.4,952.4,688.4z"/>
		</g>
		<g>
			<path class="st2" d="M258.4,722.5c-11.5,0-21-9.4-21-20.8c0-11.5,9.4-21,21-21c11.6,0,20.9,9.4,20.9,21
				C279.3,713.2,270,722.5,258.4,722.5z M258.4,688.4c-7.3,0-13.3,5.9-13.3,13.3c0,7.3,6,13.2,13.3,13.2c7.3,0,13.3-5.9,13.3-13.2
				C271.7,694.2,265.8,688.4,258.4,688.4z"/>
		</g>
		<g>
			<rect x="4.8" y="766.1" class="st2" width="491.9" height="7.6"/>
		</g>
		<g>
			<rect x="4.8" y="697.9" class="st2" width="236.4" height="7.6"/>
		</g>
		<g>
			<polygon class="st2" points="677.2,838.1 669.6,838.1 669.6,705.5 395.7,705.5 395.7,637.3 4.8,637.3 4.8,629.7 403.3,629.7 
				403.3,697.9 677.2,697.9 			"/>
		</g>
		<g>
			<polygon class="st2" points="852,838.1 844.4,838.1 844.4,766.1 913.2,766.1 913.2,705.5 789,705.5 789,637.3 509.6,637.3 
				509.6,568.9 4.8,568.9 4.8,561.3 517.3,561.3 517.3,629.7 796.7,629.7 796.7,697.9 920.8,697.9 920.8,773.7 852,773.7 			"/>
		</g>
		<g>
			<polygon class="st2" points="293.2,500.8 4.8,500.8 4.8,493.1 285.6,493.1 285.6,428.7 293.2,428.7 			"/>
		</g>
		<g>
			<rect x="391.6" y="493.1" class="st2" width="281.8" height="7.6"/>
		</g>
		<g>
			<polygon class="st2" points="998.2,637.3 861.6,637.3 861.6,568.9 565.2,568.9 565.2,561.3 869.2,561.3 869.2,629.7 998.2,629.7 
							"/>
		</g>
		<g>
			<polygon class="st2" points="1226.5,842 1097.1,842 1097.1,773.7 976.7,773.7 976.7,766.1 1104.7,766.1 1104.7,834.3 
				1218.9,834.3 1218.9,701.7 1226.5,701.7 			"/>
		</g>
		<g>
			<polygon class="st2" points="1168.6,773.7 1129.8,773.7 1129.8,705.5 969.6,705.5 969.6,697.9 1137.4,697.9 1137.4,766.1 
				1168.6,766.1 			"/>
		</g>
		<g>
			<polygon class="st2" points="1369.7,637.3 1145.5,637.3 1145.5,629.7 1362.1,629.7 1362.1,568.9 1275.4,568.9 1275.4,493.1 
				1583.3,493.1 1583.3,500.8 1283.1,500.8 1283.1,561.3 1369.7,561.3 			"/>
		</g>
		<g>
			<polygon class="st2" points="1630.9,637.3 1556.4,637.3 1556.4,568.9 1475.8,568.9 1475.8,561.3 1564,561.3 1564,629.7 
				1623.2,629.7 1623.2,561.5 1706.7,561.5 1706.7,569.1 1630.9,569.1 			"/>
		</g>
		<g>
			<polygon class="st2" points="1805.3,842 1596.6,842 1596.6,773.7 1462.5,773.7 1462.5,842 1275.2,842 1275.2,834.3 1454.8,834.3 
				1454.8,766.1 1604.2,766.1 1604.2,834.3 1805.3,834.3 			"/>
		</g>
		<g>
			<polygon class="st2" points="1419.1,773.7 1299.1,773.7 1299.1,766.1 1411.5,766.1 1411.5,697.9 1529.9,697.9 1529.9,705.5 
				1419.1,705.5 			"/>
		</g>
		<g>
			<polygon class="st2" points="1785.3,773.7 1671.6,773.7 1671.6,766.1 1777.7,766.1 1777.7,705.5 1722.7,705.5 1722.7,629.7 
				1876.4,629.7 1876.4,637.3 1730.3,637.3 1730.3,697.9 1785.3,697.9 			"/>
		</g>
		<g>
			<rect x="4.8" y="424.9" class="st2" width="159" height="7.6"/>
		</g>
		<g>
			<polygon class="st2" points="1145.5,569.1 999.2,569.1 999.2,500.8 841.6,500.8 841.6,432.5 701.5,432.5 701.5,364.3 
				567.4,364.3 567.4,432.5 396.4,432.5 396.4,424.9 559.8,424.9 559.8,356.7 709.1,356.7 709.1,424.9 849.2,424.9 849.2,493.1 
				1006.8,493.1 1006.8,561.5 1145.5,561.5 			"/>
		</g>
		<g>
			<g>
				<g>
					<path class="st2" d="M741.5,876.1c-11.6,0-20.9-9.4-20.9-20.8c0-11.6,9.3-21,20.9-21c11.5,0,21,9.4,21,21
						C762.5,866.8,753.1,876.1,741.5,876.1z M741.5,842c-7.5,0-13.3,5.8-13.3,13.3c0,7.2,6,13.2,13.3,13.2s13.3-6,13.3-13.2
						C754.9,847.9,748.9,842,741.5,842z"/>
				</g>
				<g>
					<path class="st2" d="M741.5,705.5c-11.6,0-20.9-9.4-20.9-21s9.3-21,20.9-21c11.5,0,21,9.4,21,21S753.1,705.5,741.5,705.5z
						 M741.5,671.2c-7.5,0-13.3,5.8-13.3,13.3c0,7.3,6,13.3,13.3,13.3s13.3-6,13.3-13.3C754.9,677.1,748.9,671.2,741.5,671.2z"/>
				</g>
			</g>
			<g>
				<rect x="737.7" y="701.7" class="st2" width="7.6" height="136.4"/>
			</g>
		</g>
		<g>
			<g>
				<g>
					<path class="st2" d="M230.4-72.5c-11.6,0-20.9-9.3-20.9-20.8c0-11.6,9.3-21,20.9-21c11.5,0,21,9.4,21,21
						C251.4-81.9,241.9-72.5,230.4-72.5z M230.4-106.7c-7.5,0-13.3,5.9-13.3,13.4c0,7.2,5.9,13.2,13.3,13.2s13.3-6,13.3-13.2
						C243.7-100.7,237.8-106.7,230.4-106.7z"/>
				</g>
				<g>
					<path class="st2" d="M230.4-243.1c-11.6,0-20.9-9.4-20.9-20.9c0-11.6,9.3-21,20.9-21c11.5,0,21,9.4,21,21
						C251.4-252.5,241.9-243.1,230.4-243.1z M230.4-277.4c-7.5,0-13.3,5.9-13.3,13.4c0,7.4,5.9,13.3,13.3,13.3
						c7.3,0,13.3-6,13.3-13.3C243.7-271.5,237.8-277.4,230.4-277.4z"/>
				</g>
			</g>
			<g>
				<rect x="226.6" y="-246.9" class="st2" width="7.6" height="136.4"/>
			</g>
		</g>
		<g>
			<g>
				<g>
					<path class="st2" d="M220.5-178.7c0,11.5-9.3,20.9-20.8,20.9c-11.5,0-20.9-9.3-20.9-20.9c0-11.6,9.4-21,20.9-21
						C211.2-199.7,220.5-190.3,220.5-178.7z M186.4-178.7c0,7.5,5.9,13.3,13.3,13.3c7.3,0,13.3-6,13.3-13.3c0-7.4-6-13.4-13.3-13.4
						C192.3-192.1,186.4-186.1,186.4-178.7z"/>
				</g>
				<g>
					<path class="st2" d="M49.9-178.7c0,11.5-9.4,20.9-20.9,20.9c-11.6,0-21-9.3-21-20.9c0-11.6,9.4-21,21-21
						C40.6-199.7,49.9-190.3,49.9-178.7z M15.6-178.7c0,7.5,5.9,13.3,13.4,13.3c7.3,0,13.3-6,13.3-13.3c0-7.4-6-13.4-13.3-13.4
						C21.6-192.1,15.6-186.1,15.6-178.7z"/>
				</g>
			</g>
			<g>
				<rect x="46.2" y="-182.5" class="st2" width="136.4" height="7.6"/>
			</g>
		</g>
		<g>
			<g>
				<g>
					<path class="st2" d="M1178.1-178.7c0,11.5-9.3,20.9-20.8,20.9c-11.6,0-21-9.3-21-20.9c0-11.6,9.4-21,21-21
						C1168.7-199.7,1178.1-190.3,1178.1-178.7z M1143.9-178.7c0,7.5,5.9,13.3,13.4,13.3c7.2,0,13.2-6,13.2-13.3
						c0-7.4-6-13.4-13.2-13.4C1149.9-192.1,1143.9-186.1,1143.9-178.7z"/>
				</g>
				<g>
					<path class="st2" d="M1007.5-178.7c0,11.5-9.4,20.9-21,20.9s-21-9.3-21-20.9c0-11.6,9.4-21,21-21S1007.5-190.3,1007.5-178.7z
						 M973.1-178.7c0,7.5,5.9,13.3,13.3,13.3c7.4,0,13.4-6,13.4-13.3c0-7.4-6-13.4-13.4-13.4C979.1-192.1,973.1-186.1,973.1-178.7z"
						/>
				</g>
			</g>
			<g>
				<rect x="1003.6" y="-182.5" class="st2" width="136.4" height="7.6"/>
			</g>
		</g>
		<g>
			<g>
				<g>
					<path class="st2" d="M1121.6,893.1c0,11.5-9.3,20.9-20.8,20.9c-11.6,0-21-9.4-21-20.9c0-11.6,9.4-21,21-21
						C1112.3,872.1,1121.6,881.4,1121.6,893.1z M1087.4,893.1c0,7.4,5.9,13.3,13.4,13.3c7.2,0,13.2-6,13.2-13.3
						c0-7.4-6-13.3-13.2-13.3C1093.4,879.7,1087.4,885.6,1087.4,893.1z"/>
				</g>
				<g>
					<path class="st2" d="M951,893.1c0,11.5-9.4,20.9-21,20.9c-11.6,0-20.9-9.4-20.9-20.9c0-11.6,9.4-21,20.9-21
						C941.6,872.1,951,881.4,951,893.1z M916.7,893.1c0,7.4,5.9,13.3,13.4,13.3c7.4,0,13.4-6,13.4-13.3c0-7.4-6-13.3-13.4-13.3
						S916.7,885.6,916.7,893.1z"/>
				</g>
			</g>
			<g>
				<rect x="947.2" y="889.2" class="st2" width="136.4" height="7.6"/>
			</g>
		</g>
		<g>
			<g>
				<g>
					<path class="st2" d="M282.2,1105.3c0,11.5-9.3,20.8-20.8,20.8c-11.5,0-21-9.3-21-20.8c0-11.6,9.4-21,21-21
						C272.9,1084.3,282.2,1093.7,282.2,1105.3z M248,1105.3c0,7.4,5.9,13.3,13.3,13.3c7.3,0,13.2-6,13.2-13.3
						c0-7.4-5.9-13.4-13.2-13.4C254,1091.9,248,1097.9,248,1105.3z"/>
				</g>
				<g>
					<path class="st2" d="M111.6,1105.3c0,11.5-9.4,20.8-21,20.8c-11.5,0-21-9.3-21-20.8c0-11.6,9.4-21,21-21
						C102.2,1084.3,111.6,1093.7,111.6,1105.3z M77.3,1105.3c0,7.4,5.9,13.3,13.3,13.3c7.4,0,13.4-6,13.4-13.3
						c0-7.4-6-13.4-13.4-13.4C83.3,1091.9,77.3,1097.9,77.3,1105.3z"/>
				</g>
			</g>
			<g>
				<rect x="107.8" y="1101.5" class="st2" width="136.4" height="7.6"/>
			</g>
		</g>
		<g>
			<g>
				<g>
					<path class="st2" d="M1880.3,377.7c0,11.6-9.3,20.9-20.8,20.9c-11.5,0-20.9-9.3-20.9-20.9c0-11.5,9.4-21,20.9-21
						C1870.9,356.7,1880.3,366.1,1880.3,377.7z M1846.1,377.7c0,7.5,5.9,13.3,13.3,13.3c7.3,0,13.2-6,13.2-13.3s-6-13.3-13.2-13.3
						C1852.1,364.3,1846.1,370.3,1846.1,377.7z"/>
				</g>
				<g>
					<path class="st2" d="M1709.7,377.7c0,11.6-9.4,20.9-21,20.9c-11.5,0-20.9-9.3-20.9-20.9c0-11.5,9.4-21,20.9-21
						C1700.3,356.7,1709.7,366.1,1709.7,377.7z M1675.4,377.7c0,7.5,5.9,13.3,13.3,13.3c7.4,0,13.4-6,13.4-13.3s-6-13.3-13.4-13.3
						C1681.3,364.3,1675.4,370.3,1675.4,377.7z"/>
				</g>
			</g>
			<g>
				<rect x="1705.9" y="373.8" class="st2" width="136.4" height="7.6"/>
			</g>
		</g>
		<g>
			<g>
				<g>
					<path class="st2" d="M1880.3,926.5c0,11.5-9.3,20.9-20.8,20.9c-11.5,0-20.9-9.4-20.9-20.9s9.4-21,20.9-21
						C1870.9,905.5,1880.3,914.9,1880.3,926.5z M1846.1,926.5c0,7.5,5.9,13.3,13.3,13.3c7.3,0,13.2-5.9,13.2-13.3
						c0-7.4-6-13.3-13.2-13.3C1852.1,913.1,1846.1,919.1,1846.1,926.5z"/>
				</g>
				<g>
					<path class="st2" d="M1709.7,926.5c0,11.5-9.4,20.9-21,20.9c-11.5,0-20.9-9.4-20.9-20.9s9.4-21,20.9-21
						C1700.3,905.5,1709.7,914.9,1709.7,926.5z M1675.4,926.5c0,7.5,5.9,13.3,13.3,13.3c7.4,0,13.4-5.9,13.4-13.3
						c0-7.4-6-13.3-13.4-13.3C1681.3,913.1,1675.4,919.1,1675.4,926.5z"/>
				</g>
			</g>
			<g>
				<rect x="1705.9" y="922.7" class="st2" width="136.4" height="7.6"/>
			</g>
		</g>
		<g>
			<g>
				<g>
					<path class="st2" d="M1880.3,1160.5c0,11.5-9.3,20.8-20.8,20.8c-11.5,0-20.9-9.3-20.9-20.8c0-11.6,9.4-21,20.9-21
						C1871,1139.5,1880.3,1148.9,1880.3,1160.5z M1846.2,1160.5c0,7.4,5.9,13.3,13.3,13.3c7.3,0,13.2-6,13.2-13.3
						c0-7.4-6-13.4-13.2-13.4C1852.1,1147.1,1846.2,1153.1,1846.2,1160.5z"/>
				</g>
				<g>
					<path class="st2" d="M1709.7,1160.5c0,11.5-9.4,20.8-21,20.8c-11.5,0-20.9-9.3-20.9-20.8c0-11.6,9.4-21,20.9-21
						C1700.3,1139.5,1709.7,1148.9,1709.7,1160.5z M1675.4,1160.5c0,7.4,5.9,13.3,13.3,13.3c7.4,0,13.4-6,13.4-13.3
						c0-7.4-6-13.4-13.4-13.4C1681.4,1147.1,1675.4,1153.1,1675.4,1160.5z"/>
				</g>
			</g>
			<g>
				<rect x="1706" y="1156.7" class="st2" width="136.4" height="7.6"/>
			</g>
		</g>
		<g>
			<g>
				<g>
					<path class="st2" d="M520.4,1160.5c0,11.5-9.3,20.8-20.8,20.8c-11.5,0-20.9-9.3-20.9-20.8c0-11.6,9.4-21,20.9-21
						C511.1,1139.5,520.4,1148.9,520.4,1160.5z M486.2,1160.5c0,7.4,5.9,13.3,13.3,13.3c7.3,0,13.3-6,13.3-13.3
						c0-7.4-6-13.4-13.3-13.4C492.2,1147.1,486.2,1153.1,486.2,1160.5z"/>
				</g>
				<g>
					<path class="st2" d="M349.8,1160.5c0,11.5-9.4,20.8-20.9,20.8c-11.6,0-21-9.3-21-20.8c0-11.6,9.4-21,21-21
						C340.4,1139.5,349.8,1148.9,349.8,1160.5z M315.4,1160.5c0,7.4,5.9,13.3,13.4,13.3c7.3,0,13.3-6,13.3-13.3
						c0-7.4-6-13.4-13.3-13.4C321.4,1147.1,315.4,1153.1,315.4,1160.5z"/>
				</g>
			</g>
			<g>
				<rect x="346" y="1156.7" class="st2" width="136.4" height="7.6"/>
			</g>
		</g>
		<g>
			<g>
				<g>
					<path class="st2" d="M1010.9,356.8c0,11.6-9.3,20.9-20.8,20.9c-11.6,0-21-9.3-21-20.9c0-11.5,9.4-21,21-21
						C1001.6,335.8,1010.9,345.2,1010.9,356.8z M976.7,356.8c0,7.5,5.9,13.3,13.4,13.3c7.2,0,13.2-6,13.2-13.3s-6-13.3-13.2-13.3
						C982.7,343.4,976.7,349.4,976.7,356.8z"/>
				</g>
				<g>
					<path class="st2" d="M840.3,356.8c0,11.6-9.4,20.9-21,20.9c-11.5,0-20.9-9.3-20.9-20.9c0-11.5,9.4-21,20.9-21
						C830.9,335.8,840.3,345.2,840.3,356.8z M806,356.8c0,7.5,5.9,13.3,13.3,13.3s13.4-6,13.4-13.3s-6-13.3-13.4-13.3
						C812,343.4,806,349.4,806,356.8z"/>
				</g>
			</g>
			<g>
				<rect x="836.5" y="353" class="st2" width="136.4" height="7.6"/>
			</g>
		</g>
		<g>
			<g>
				<g>
					<path class="st2" d="M617.3,855.3c0,11.5-9.3,20.9-20.8,20.9s-21-9.4-21-20.9c0-11.6,9.4-21,21-21
						C608,834.3,617.3,843.7,617.3,855.3z M583.1,855.3c0,7.4,5.9,13.3,13.3,13.3c7.3,0,13.3-6,13.3-13.3c0-7.4-6-13.3-13.3-13.3
						C589.1,842,583.1,847.9,583.1,855.3z"/>
				</g>
				<g>
					<path class="st2" d="M446.7,855.3c0,11.5-9.4,20.9-21,20.9c-11.5,0-20.9-9.4-20.9-20.9c0-11.6,9.4-21,20.9-21
						C437.3,834.3,446.7,843.7,446.7,855.3z M412.4,855.3c0,7.4,5.9,13.3,13.3,13.3c7.4,0,13.4-6,13.4-13.3c0-7.4-6-13.3-13.4-13.3
						C418.4,842,412.4,847.9,412.4,855.3z"/>
				</g>
			</g>
			<g>
				<rect x="442.9" y="851.5" class="st2" width="136.4" height="7.6"/>
			</g>
		</g>
		<g>
			<rect x="602.8" y="428.7" class="st2" width="7.6" height="136.6"/>
		</g>
		<g>
			<polygon class="st2" points="1915.2,500.8 1641.7,500.8 1641.7,432.5 1429.3,432.5 1429.3,364.3 1224.9,364.3 1224.9,432.5 
				1050.3,432.5 1050.3,424.9 1217.3,424.9 1217.3,356.7 1436.9,356.7 1436.9,424.9 1649.3,424.9 1649.3,493.1 1915.2,493.1 			"/>
		</g>
		<g>
			<rect x="1271.3" y="424.9" class="st2" width="107.5" height="7.6"/>
		</g>
		<g>
			<g>
				<rect x="1593.7" y="298.8" class="st2" width="321.5" height="7.6"/>
			</g>
			<g>
				<path class="st2" d="M1574.6,323.6c-11.6,0-21-9.4-21-21c0-11.5,9.4-20.9,21-20.9c11.5,0,20.9,9.4,20.9,20.9
					C1595.5,314.2,1586.2,323.6,1574.6,323.6z M1574.6,289.3c-7.4,0-13.4,6-13.4,13.3c0,7.4,6,13.3,13.4,13.3
					c7.3,0,13.3-5.9,13.3-13.3C1587.9,295.2,1582.1,289.3,1574.6,289.3z"/>
			</g>
			<g>
				<path class="st2" d="M1071.8,340.6c-11.6,0-21-9.3-21-20.8c0-11.5,9.4-21,21-21c11.6,0,20.9,9.4,20.9,21
					C1092.7,331.3,1083.4,340.6,1071.8,340.6z M1071.8,306.4c-7.4,0-13.3,6-13.3,13.3c0,7.3,6,13.3,13.3,13.3
					c7.3,0,13.3-6,13.3-13.3C1085.1,312.3,1079.2,306.4,1071.8,306.4z"/>
			</g>
			<g>
				<path class="st2" d="M1408.9,255.4c-11.6,0-20.9-9.4-20.9-20.9c0-11.6,9.3-21,20.9-21c11.6,0,21,9.4,21,21
					C1429.8,246,1420.4,255.4,1408.9,255.4z M1408.9,221c-7.5,0-13.3,5.8-13.3,13.4c0,7.3,6,13.3,13.3,13.3c7.4,0,13.4-6,13.4-13.3
					C1422.2,227,1416.2,221,1408.9,221z"/>
			</g>
			<g>
				<path class="st2" d="M1246.6,340.6c-11.6,0-21-9.3-21-20.8s9.4-21,21-21c11.5,0,20.9,9.4,20.9,21
					C1267.4,331.3,1258.1,340.6,1246.6,340.6z M1246.6,306.4c-7.4,0-13.4,6-13.4,13.3c0,7.3,6,13.3,13.4,13.3
					c7.3,0,13.3-6,13.3-13.3C1259.8,312.3,1254,306.4,1246.6,306.4z"/>
			</g>
			<g>
				<path class="st2" d="M1178.5,340.6c-11.6,0-21-9.3-21-20.8s9.4-21,21-21c11.6,0,20.9,9.4,20.9,21S1190.1,340.6,1178.5,340.6z
					 M1178.5,306.4c-7.4,0-13.4,6-13.4,13.3c0,7.3,6,13.3,13.4,13.3c7.3,0,13.3-6,13.3-13.3C1191.8,312.3,1186,306.4,1178.5,306.4z"
					/>
			</g>
			<g>
				<path class="st2" d="M1178.5,170c-11.6,0-21-9.4-21-21c0-11.6,9.4-21,21-21c11.6,0,21,9.4,21,21
					C1199.5,160.6,1190.1,170,1178.5,170z M1178.5,135.7c-7.4,0-13.4,6-13.4,13.4c0,7.3,6,13.3,13.4,13.3c7.4,0,13.3-6,13.3-13.3
					C1191.8,141.7,1185.9,135.7,1178.5,135.7z"/>
			</g>
			<g>
				<path class="st2" d="M1630.6-103c-11.6,0-20.9-9.4-20.9-21c0-11.5,9.3-20.8,20.9-20.8c11.5,0,20.9,9.3,20.9,20.8
					C1651.5-112.4,1642.1-103,1630.6-103z M1630.6-137.2c-7.3,0-13.3,5.9-13.3,13.2c0,7.5,5.8,13.3,13.3,13.3
					c7.4,0,13.3-6,13.3-13.3C1643.9-131.2,1638-137.2,1630.6-137.2z"/>
			</g>
			<g>
				<path class="st2" d="M1739.1-85.8c-11.6,0-21-9.4-21-21s9.4-21,21-21c11.6,0,20.9,9.4,20.9,21S1750.7-85.8,1739.1-85.8z
					 M1739.1-120.2c-7.4,0-13.3,6-13.3,13.4c0,7.5,5.9,13.4,13.3,13.4c7.3,0,13.3-6.1,13.3-13.4
					C1752.4-114.2,1746.4-120.2,1739.1-120.2z"/>
			</g>
			<g>
				<path class="st2" d="M1540.3-85.8c-11.5,0-20.9-9.4-20.9-21c0-11.6,9.4-21,20.9-21c11.6,0,20.9,9.4,20.9,21
					S1551.9-85.8,1540.3-85.8z M1540.3-120.2c-7.3,0-13.3,6-13.3,13.4c0,7.3,6,13.4,13.3,13.4c7.5,0,13.3-5.9,13.3-13.4
					C1553.6-114.2,1547.6-120.2,1540.3-120.2z"/>
			</g>
			<g>
				<path class="st2" d="M1543.2-17.6c-11.6,0-21-9.4-21-20.9c0-11.5,9.4-20.8,21-20.8c11.6,0,20.9,9.3,20.9,20.8
					C1564.1-27,1554.8-17.6,1543.2-17.6z M1543.2-51.8c-7.4,0-13.4,5.9-13.4,13.2c0,7.3,6,13.3,13.4,13.3c7.5,0,13.3-5.9,13.3-13.3
					C1556.5-45.9,1550.5-51.8,1543.2-51.8z"/>
			</g>
			<g>
				<path class="st2" d="M1229.4-17.6c-11.5,0-20.9-9.4-20.9-20.9c0-11.5,9.3-20.8,20.9-20.8c11.6,0,21,9.3,21,20.8
					C1250.4-27,1241-17.6,1229.4-17.6z M1229.4-51.8c-7.3,0-13.3,5.9-13.3,13.2c0,7.3,6,13.3,13.3,13.3c7.5,0,13.4-5.9,13.4-13.3
					C1242.8-45.9,1236.8-51.8,1229.4-51.8z"/>
			</g>
			<g>
				<path class="st2" d="M1313.4-103c-11.5,0-20.9-9.4-20.9-21c0-11.5,9.4-20.8,20.9-20.8c11.6,0,21,9.3,21,20.8
					C1334.4-112.4,1325-103,1313.4-103z M1313.4-137.2c-7.4,0-13.3,5.9-13.3,13.2c0,7.3,6,13.3,13.3,13.3c7.4,0,13.4-6,13.4-13.3
					C1326.8-131.2,1320.8-137.2,1313.4-137.2z"/>
			</g>
			<g>
				<path class="st2" d="M1313.4,67.8c-11.5,0-20.9-9.4-20.9-20.9c0-11.6,9.4-21,20.9-21c11.6,0,20.9,9.4,20.9,21
					C1334.3,58.4,1325,67.8,1313.4,67.8z M1313.4,33.4c-7.4,0-13.3,6-13.3,13.4c0,7.3,6,13.3,13.3,13.3c7.5,0,13.3-5.9,13.3-13.3
					C1326.7,39.4,1320.7,33.4,1313.4,33.4z"/>
			</g>
			<g>
				<path class="st2" d="M757,50.6c-11.6,0-21-9.3-21-20.8c0-11.5,9.4-20.9,21-20.9c11.5,0,21,9.4,21,20.9
					C778,41.3,768.6,50.6,757,50.6z M757,16.4c-7.4,0-13.3,6-13.3,13.3c0,7.3,5.9,13.2,13.3,13.2c7.3,0,13.3-5.9,13.3-13.2
					C770.4,22.5,764.4,16.4,757,16.4z"/>
			</g>
			<g>
				<path class="st2" d="M1370.3,50.6c-11.5,0-20.9-9.4-20.9-21c0-11.5,9.3-20.8,20.9-20.8c11.6,0,21,9.3,21,20.8
					C1391.3,41.2,1381.8,50.6,1370.3,50.6z M1370.3,16.4c-7.3,0-13.3,5.9-13.3,13.2c0,7.5,5.8,13.4,13.3,13.4
					c7.4,0,13.4-6,13.4-13.4C1383.6,22.3,1377.7,16.4,1370.3,16.4z"/>
			</g>
			<g>
				<path class="st2" d="M904.6,118.8c-11.5,0-21-9.3-21-20.8c0-11.6,9.4-21,21-21s21,9.4,21,21
					C925.6,109.5,916.2,118.8,904.6,118.8z M904.6,84.6c-7.4,0-13.3,6-13.3,13.3c0,7.3,5.9,13.2,13.3,13.2S918,105.3,918,98
					C918,90.7,912.1,84.6,904.6,84.6z"/>
			</g>
			<g>
				<path class="st2" d="M791.7,118.8c-11.5,0-21-9.3-21-20.8c0-11.6,9.4-21,21-21c11.5,0,21,9.4,21,21
					C812.6,109.5,803.2,118.8,791.7,118.8z M791.7,84.6c-7.4,0-13.3,6-13.3,13.3c0,7.3,5.9,13.2,13.3,13.2c7.4,0,13.3-5.9,13.3-13.2
					C805,90.7,799.1,84.6,791.7,84.6z"/>
			</g>
			<g>
				<path class="st2" d="M319.6-17.6c-11.5,0-21-9.4-21-20.9c0-11.5,9.4-20.8,21-20.8c11.5,0,21,9.3,21,20.8
					C340.5-27,331.1-17.6,319.6-17.6z M319.6-51.8c-7.4,0-13.3,5.9-13.3,13.2c0,7.3,5.9,13.3,13.3,13.3c7.4,0,13.3-6,13.3-13.3
					C332.9-45.9,327-51.8,319.6-51.8z"/>
			</g>
			<g>
				<path class="st2" d="M887.5-85.8c-11.6,0-21-9.4-21-21s9.4-21,21-21c11.5,0,21,9.4,21,21S899-85.8,887.5-85.8z M887.5-120.2
					c-7.4,0-13.3,6-13.3,13.4c0,7.3,5.9,13.4,13.3,13.4c7.3,0,13.3-6.1,13.3-13.4C900.8-114.2,894.8-120.2,887.5-120.2z"/>
			</g>
			<g>
				<path class="st2" d="M461.4,50.6c-11.6,0-21-9.4-21-21c0-11.5,9.4-20.8,21-20.8c11.5,0,20.9,9.3,20.9,20.8
					C482.3,41.2,472.9,50.6,461.4,50.6z M461.4,16.4c-7.4,0-13.4,5.9-13.4,13.2c0,7.3,6,13.4,13.4,13.4c7.3,0,13.3-6,13.3-13.4
					C474.7,22.3,468.7,16.4,461.4,16.4z"/>
			</g>
			<g>
				<path class="st2" d="M196.2,50.6c-11.6,0-21-9.4-21-21c0-11.5,9.4-20.8,21-20.8c11.5,0,21,9.3,21,20.8
					C217.2,41.2,207.7,50.6,196.2,50.6z M196.2,16.4c-7.4,0-13.4,5.9-13.4,13.2c0,7.3,6,13.4,13.4,13.4c7.3,0,13.3-6,13.3-13.4
					C209.5,22.3,203.5,16.4,196.2,16.4z"/>
			</g>
			<g>
				<path class="st2" d="M960,255.4c-11.6,0-21-9.4-21-20.9c0-11.6,9.4-21,21-21s21,9.4,21,21C981,246,971.6,255.4,960,255.4z
					 M960,221c-7.4,0-13.4,6-13.4,13.4c0,7.3,6,13.3,13.4,13.3s13.4-6,13.4-13.3C973.4,227.1,967.4,221,960,221z"/>
			</g>
			<g>
				<path class="st2" d="M697.3,170c-11.5,0-21-9.4-21-21s9.4-21,21-21c11.5,0,21,9.4,21,21C718.3,160.6,708.9,170,697.3,170z
					 M697.3,135.7c-7.4,0-13.3,6.1-13.3,13.4s5.9,13.3,13.3,13.3s13.3-6,13.3-13.3S704.7,135.7,697.3,135.7z"/>
			</g>
			<g>
				<path class="st2" d="M638.1,255.2c-11.5,0-21-9.3-21-20.8c0-11.6,9.4-21,21-21c11.6,0,21,9.4,21,21
					C659,245.9,649.7,255.2,638.1,255.2z M638.1,221c-7.3,0-13.3,6-13.3,13.4c0,7.3,6,13.2,13.3,13.2c7.4,0,13.3-5.9,13.3-13.2
					C651.4,227.1,645.5,221,638.1,221z"/>
			</g>
			<g>
				<path class="st2" d="M374.2,187c-11.5,0-21-9.3-21-20.8c0-11.6,9.4-21,21-21c11.6,0,21,9.4,21,21
					C395.2,177.7,385.8,187,374.2,187z M374.2,152.8c-7.3,0-13.3,6.1-13.3,13.4s6,13.2,13.3,13.2c7.4,0,13.3-5.9,13.3-13.2
					S381.6,152.8,374.2,152.8z"/>
			</g>
			<g>
				<path class="st2" d="M265.5,255.2c-11.5,0-21-9.3-21-20.8c0-11.6,9.4-21,21-21c11.5,0,21,9.4,21,21
					C286.5,245.9,277.1,255.2,265.5,255.2z M265.5,221c-7.4,0-13.3,6-13.3,13.4c0,7.3,5.9,13.2,13.3,13.2c7.4,0,13.3-5.9,13.3-13.2
					C278.9,227.1,273,221,265.5,221z"/>
			</g>
			<g>
				<path class="st2" d="M22,118.8c-11.5,0-21-9.3-21-20.8c0-11.6,9.4-21,21-21c11.5,0,21,9.4,21,21C43,109.5,33.5,118.8,22,118.8z
					 M22,84.6c-7.5,0-13.3,5.9-13.3,13.3c0,7.3,5.9,13.2,13.3,13.2c7.3,0,13.3-5.9,13.3-13.2C35.3,90.7,29.3,84.6,22,84.6z"/>
			</g>
			<g>
				<path class="st2" d="M663.1,323.6c-11.6,0-21-9.4-21-21c0-11.5,9.4-20.9,21-20.9c11.5,0,21,9.4,21,20.9
					C684.1,314.2,674.6,323.6,663.1,323.6z M663.1,289.3c-7.4,0-13.3,6-13.3,13.3c0,7.4,5.9,13.3,13.3,13.3
					c7.3,0,13.3-5.9,13.3-13.3C676.4,295.2,670.4,289.3,663.1,289.3z"/>
			</g>
			<g>
				<path class="st2" d="M97.5,323.6c-11.6,0-21-9.4-21-21c0-11.5,9.4-20.9,21-20.9c11.5,0,21,9.4,21,20.9
					C118.5,314.2,109,323.6,97.5,323.6z M97.5,289.3c-7.4,0-13.3,6-13.3,13.3c0,7.4,5.9,13.3,13.3,13.3c7.3,0,13.3-5.9,13.3-13.3
					C110.8,295.2,104.8,289.3,97.5,289.3z"/>
			</g>
			<g>
				<path class="st2" d="M734.3,255.2c-11.5,0-21-9.3-21-20.8c0-11.6,9.4-21,21-21c11.5,0,21,9.4,21,21
					C755.2,245.9,745.8,255.2,734.3,255.2z M734.3,221c-7.4,0-13.3,6-13.3,13.4c0,7.3,5.9,13.2,13.3,13.2s13.3-5.9,13.3-13.2
					C747.6,227.1,741.7,221,734.3,221z"/>
			</g>
			<g>
				<path class="st2" d="M967.6,187c-11.6,0-21-9.3-21-20.8c0-11.6,9.4-21,21-21c11.6,0,21,9.4,21,21
					C988.6,177.7,979.2,187,967.6,187z M967.6,152.8c-7.4,0-13.3,6.1-13.3,13.4s6,13.2,13.3,13.2c7.4,0,13.4-5.9,13.4-13.2
					S975,152.8,967.6,152.8z"/>
			</g>
			<g>
				<path class="st2" d="M1661.6,187c-11.5,0-20.9-9.3-20.9-20.8c0-11.6,9.3-21,20.9-21c11.6,0,21,9.4,21,21
					C1682.6,177.7,1673.2,187,1661.6,187z M1661.6,152.8c-7.5,0-13.3,5.8-13.3,13.4c0,7.2,6,13.2,13.3,13.2c7.4,0,13.4-6,13.4-13.2
					C1675,158.8,1669,152.8,1661.6,152.8z"/>
			</g>
			<g>
				<rect x="1423.3" y="230.6" class="st2" width="491.9" height="7.6"/>
			</g>
			<g>
				<rect x="1678.8" y="162.4" class="st2" width="236.4" height="7.6"/>
			</g>
			<g>
				<polygon class="st2" points="1250.4,302.6 1242.8,302.6 1242.8,162.4 1516.7,162.4 1516.7,94.2 1915.2,94.2 1915.2,101.8 
					1524.3,101.8 1524.3,170 1250.4,170 				"/>
			</g>
			<g>
				<polygon class="st2" points="1075.6,302.6 1068,302.6 1068,238.2 999.2,238.2 999.2,162.4 1123.4,162.4 1123.4,94.2 
					1402.8,94.2 1402.8,25.8 1915.2,25.8 1915.2,33.4 1410.4,33.4 1410.4,101.8 1131,101.8 1131,170 1006.8,170 1006.8,230.6 
					1075.6,230.6 				"/>
			</g>
			<g>
				<polygon class="st2" points="1915.2,-34.8 1626.8,-34.8 1626.8,-106.8 1634.4,-106.8 1634.4,-42.4 1915.2,-42.4 				"/>
			</g>
			<g>
				<rect x="1246.6" y="-42.4" class="st2" width="281.8" height="7.6"/>
			</g>
			<g>
				<polygon class="st2" points="1058.4,101.8 921.8,101.8 921.8,94.2 1050.8,94.2 1050.8,25.8 1354.8,25.8 1354.8,33.4 
					1058.4,33.4 				"/>
			</g>
			<g>
				<polygon class="st2" points="822.9,306.4 693.5,306.4 693.5,166.2 701.1,166.2 701.1,298.8 815.3,298.8 815.3,230.6 
					943.3,230.6 943.3,238.2 822.9,238.2 				"/>
			</g>
			<g>
				<polygon class="st2" points="790.2,238.2 751.4,238.2 751.4,230.6 782.6,230.6 782.6,162.4 950.4,162.4 950.4,170 790.2,170 
									"/>
			</g>
			<g>
				<polygon class="st2" points="774.5,101.8 550.3,101.8 550.3,25.8 636.9,25.8 636.9,-34.8 336.7,-34.8 336.7,-42.4 644.6,-42.4 
					644.6,33.4 557.8,33.4 557.8,94.2 774.5,94.2 				"/>
			</g>
			<g>
				<polygon class="st2" points="363.6,101.8 289.2,101.8 289.2,33.6 213.3,33.6 213.3,26 296.7,26 296.7,94.2 356,94.2 356,25.8 
					444.2,25.8 444.2,33.4 363.6,33.4 				"/>
			</g>
			<g>
				<polygon class="st2" points="644.8,306.4 457.6,306.4 457.6,238.2 323.4,238.2 323.4,306.4 114.7,306.4 114.7,298.8 
					315.7,298.8 315.7,230.6 465.1,230.6 465.1,298.8 644.8,298.8 				"/>
			</g>
			<g>
				<polygon class="st2" points="620.9,238.2 500.9,238.2 500.9,170 390.1,170 390.1,162.4 508.5,162.4 508.5,230.6 620.9,230.6 
									"/>
			</g>
			<g>
				<polygon class="st2" points="248.4,238.2 134.7,238.2 134.7,162.4 189.7,162.4 189.7,101.8 43.6,101.8 43.6,94.2 197.3,94.2 
					197.3,170 142.3,170 142.3,230.6 248.4,230.6 				"/>
			</g>
			<g>
				<rect x="1756.2" y="-110.6" class="st2" width="159" height="7.6"/>
			</g>
			<g>
				<polygon class="st2" points="920.8,33.6 774.5,33.6 774.5,26 913.2,26 913.2,-42.4 1070.8,-42.4 1070.8,-110.6 1210.9,-110.6 
					1210.9,-178.8 1360.2,-178.8 1360.2,-110.6 1523.6,-110.6 1523.6,-103 1352.6,-103 1352.6,-171.2 1218.5,-171.2 1218.5,-103 
					1078.4,-103 1078.4,-34.8 920.8,-34.8 				"/>
			</g>
			<g>
				<rect x="1174.7" y="166.2" class="st2" width="7.6" height="136.4"/>
			</g>
			<g>
				<rect x="1309.6" y="-106.8" class="st2" width="7.6" height="136.5"/>
			</g>
			<g>
				<polygon class="st2" points="277,-34.8 3,-34.8 3,-42.4 269.4,-42.4 269.4,-110.6 482.2,-110.6 482.2,-178.8 702.3,-178.8 
					702.3,-110.6 869.7,-110.6 869.7,-103 694.8,-103 694.8,-171.2 489.9,-171.2 489.9,-103 277,-103 				"/>
			</g>
			<g>
				<rect x="541.2" y="-110.6" class="st2" width="107.6" height="7.6"/>
			</g>
		</g>
		<g>
			<path class="st2" d="M520.2-222.3c-11.5,0-20.9-9.3-20.9-20.8c0-11.5,9.4-20.9,20.9-20.9c11.6,0,21,9.4,21,20.9
				C541.2-231.6,531.8-222.3,520.2-222.3z M520.2-256.5c-7.4,0-13.3,5.9-13.3,13.3c0,7.3,6,13.2,13.3,13.2c7.4,0,13.4-5.9,13.4-13.2
				C533.6-250.4,527.6-256.5,520.2-256.5z"/>
		</g>
		<g>
			<path class="st2" d="M520.2-85.9c-11.5,0-20.9-9.3-20.9-20.8c0-11.6,9.4-21,20.9-21c11.6,0,21,9.4,21,21
				C541.2-95.2,531.8-85.9,520.2-85.9z M520.2-120.1c-7.4,0-13.3,5.9-13.3,13.4c0,7.3,6,13.2,13.3,13.2c7.4,0,13.4-5.9,13.4-13.2
				C533.6-114,527.6-120.1,520.2-120.1z"/>
		</g>
		<g>
			<path class="st2" d="M669.5-85.9c-11.5,0-20.8-9.3-20.8-20.8c0-11.6,9.3-21,20.8-21c11.6,0,21,9.4,21,21
				C690.5-95.2,681.1-85.9,669.5-85.9z M669.5-120.1c-7.4,0-13.3,5.9-13.3,13.4c0,7.3,6,13.2,13.3,13.2c7.4,0,13.4-5.9,13.4-13.2
				C682.9-114,676.9-120.1,669.5-120.1z"/>
		</g>
		<g>
			<path class="st2" d="M1254.3,449.4c-11.6,0-20.9-9.2-20.9-20.8c0-11.6,9.3-21,20.9-21c11.5,0,20.9,9.4,20.9,21
				C1275.2,440.2,1265.8,449.4,1254.3,449.4z M1254.3,415.3c-7.5,0-13.3,6-13.3,13.4c0,7.3,6,13.2,13.3,13.2
				c7.4,0,13.3-5.8,13.3-13.2C1267.6,421.4,1261.6,415.3,1254.3,415.3z"/>
		</g>
		<g>
			<path class="st2" d="M1399.7,449.4c-11.6,0-20.9-9.2-20.9-20.8c0-11.6,9.3-21,20.9-21s21,9.4,21,21
				C1420.7,440.2,1411.3,449.4,1399.7,449.4z M1399.7,415.3c-7.5,0-13.3,6-13.3,13.4c0,7.3,6,13.2,13.3,13.2
				c7.4,0,13.4-5.8,13.4-13.2C1413.1,421.4,1407.1,415.3,1399.7,415.3z"/>
		</g>
		<g>
			<path class="st2" d="M1399.7,985.9c-11.6,0-20.9-9.3-20.9-20.8c0-11.6,9.3-21.1,20.9-21.1c11.6,0,21,9.4,21,21.1
				C1420.7,976.6,1411.3,985.9,1399.7,985.9z M1399.7,951.7c-7.5,0-13.3,5.9-13.3,13.4c0,7.3,6,13.1,13.3,13.1
				c7.4,0,13.4-5.8,13.4-13.1S1407.1,951.7,1399.7,951.7z"/>
		</g>
		<g>
			<path class="st2" d="M1254.3,985.9c-11.6,0-20.9-9.3-20.9-20.8c0-11.6,9.3-21.1,20.9-21.1c11.5,0,20.9,9.4,20.9,21.1
				C1275.3,976.6,1265.9,985.9,1254.3,985.9z M1254.3,951.7c-7.5,0-13.3,5.9-13.3,13.4c0,7.3,6,13.1,13.3,13.1
				c7.4,0,13.3-5.8,13.3-13.1S1261.7,951.7,1254.3,951.7z"/>
		</g>
		<g>
			<path class="st2" d="M669.5-222.3c-11.5,0-20.8-9.3-20.8-20.8c0-11.5,9.3-20.9,20.8-20.9c11.6,0,21,9.4,21,20.9
				C690.5-231.6,681.1-222.3,669.5-222.3z M669.5-256.5c-7.4,0-13.3,5.9-13.3,13.3c0,7.3,6,13.2,13.3,13.2c7.4,0,13.4-5.9,13.4-13.2
				C682.9-250.4,676.9-256.5,669.5-256.5z"/>
		</g>
	</g>
</g>
<g>
</g>
<g>
</g>
<g>
</g>
<g>
</g>
<g>
</g>
</svg>
